<svg width="26" height="22" viewBox="0 0 26 22" fill="none" xmlns="http://www.w3.org/2000/svg">
<path d="M0.166626 21.5V15.6667H2.49996V19.1667H5.99996V21.5H0.166626ZM20 21.5V19.1667H23.5V15.6667H25.8333V21.5H20ZM3.66663 18V4H5.99996V18H3.66663ZM7.16663 18V4H8.33329V18H7.16663ZM10.6666 18V4H13V18H10.6666ZM14.1666 18V4H17.6666V18H14.1666ZM18.8333 18V4H20V18H18.8333ZM21.1666 18V4H22.3333V18H21.1666ZM0.166626 6.33333V0.5H5.99996V2.83333H2.49996V6.33333H0.166626ZM23.5 6.33333V2.83333H20V0.5H25.8333V6.33333H23.5Z" fill="white"/>
</svg>
