<svg width="24" height="23" viewBox="0 0 24 23" fill="none" xmlns="http://www.w3.org/2000/svg">
<path d="M3.99998 22.5002C2.83331 22.5002 1.90484 22.0481 1.21456 21.1439C0.524284 20.2397 0.324978 19.2335 0.616645 18.1252L2.71665 10.1918C2.07498 9.7835 1.54512 9.22933 1.12706 8.52933C0.709006 7.82933 0.499978 7.04183 0.499978 6.16683C0.499978 4.8835 0.956923 3.78488 1.87081 2.871C2.7847 1.95711 3.88331 1.50016 5.16665 1.50016H14.5C15.375 1.50016 16.0361 1.86961 16.4833 2.6085C16.9305 3.34738 16.9597 4.10572 16.5708 4.8835L14.2375 9.55016C14.0236 9.93905 13.7368 10.2502 13.3771 10.4835C13.0173 10.7168 12.6139 10.8335 12.1666 10.8335H9.80415L9.48331 12.0002H9.83331C10.1639 12.0002 10.441 12.112 10.6646 12.3356C10.8882 12.5592 11 12.8363 11 13.1668V15.5002C11 15.8307 10.8882 16.1078 10.6646 16.3314C10.441 16.555 10.1639 16.6668 9.83331 16.6668H8.25831L7.38331 19.9335C7.16942 20.6918 6.75137 21.3092 6.12915 21.7856C5.50692 22.262 4.7972 22.5002 3.99998 22.5002ZM3.99998 20.1668C4.2722 20.1668 4.50553 20.0891 4.69998 19.9335C4.89442 19.7779 5.03053 19.5738 5.10831 19.321L7.38331 10.8335H4.96248L2.86248 18.7085C2.76526 19.0779 2.83331 19.4134 3.06665 19.7147C3.29998 20.0161 3.61109 20.1668 3.99998 20.1668ZM5.16665 8.50016H12.1666L14.5 3.8335H5.16665C4.52498 3.8335 3.97567 4.06197 3.51873 4.51891C3.06178 4.97586 2.83331 5.52516 2.83331 6.16683C2.83331 6.8085 3.06178 7.3578 3.51873 7.81475C3.97567 8.27169 4.52498 8.50016 5.16665 8.50016ZM19.1666 3.8335L18.4375 2.2585L22.6666 0.333496L23.3666 1.93766L19.1666 3.8335ZM22.6666 12.0002L18.4375 10.1043L19.1666 8.50016L23.3666 10.4252L22.6666 12.0002ZM19.1666 7.04183V5.29183H23.8333V7.04183H19.1666Z" fill="white"/>
</svg>
