<svg width="26" height="26" viewBox="0 0 26 26" fill="none" xmlns="http://www.w3.org/2000/svg">
<path d="M9.60498 9.50016C9.87927 8.72044 10.4207 8.06295 11.1333 7.64415C11.8459 7.22535 12.6837 7.07226 13.4984 7.21199C14.313 7.35173 15.0519 7.77527 15.5842 8.40761C16.1165 9.03995 16.4079 9.84027 16.4066 10.6668C16.4066 13.0002 12.9066 14.1668 12.9066 14.1668M13 18.8335H13.0116M24.6666 13.0002C24.6666 19.4435 19.4433 24.6668 13 24.6668C6.55666 24.6668 1.33331 19.4435 1.33331 13.0002C1.33331 6.55684 6.55666 1.3335 13 1.3335C19.4433 1.3335 24.6666 6.55684 24.6666 13.0002Z" stroke="white" stroke-width="2" stroke-linecap="round" stroke-linejoin="round"/>
</svg>
