<svg width="24" height="26" viewBox="0 0 24 26" fill="none" xmlns="http://www.w3.org/2000/svg">
<path d="M8.02167 14.7618L15.99 19.4052M15.9783 6.59516L8.02167 11.2385M22.5 4.8335C22.5 6.76649 20.933 8.3335 19 8.3335C17.067 8.3335 15.5 6.76649 15.5 4.8335C15.5 2.9005 17.067 1.3335 19 1.3335C20.933 1.3335 22.5 2.9005 22.5 4.8335ZM8.5 13.0002C8.5 14.9332 6.933 16.5002 5 16.5002C3.067 16.5002 1.5 14.9332 1.5 13.0002C1.5 11.0672 3.067 9.50016 5 9.50016C6.933 9.50016 8.5 11.0672 8.5 13.0002ZM22.5 21.1668C22.5 23.0998 20.933 24.6668 19 24.6668C17.067 24.6668 15.5 23.0998 15.5 21.1668C15.5 19.2338 17.067 17.6668 19 17.6668C20.933 17.6668 22.5 19.2338 22.5 21.1668Z" stroke="white" stroke-width="2" stroke-linecap="round" stroke-linejoin="round"/>
</svg>
