<svg width="26" height="20" viewBox="0 0 26 20" fill="none" xmlns="http://www.w3.org/2000/svg">
<path d="M6 8.8335H10.6667M8.33333 6.50016V11.1668M16.5 10.0002H16.5117M20 7.66683H20.0117M11.1904 1.8335H14.8096C17.8719 1.8335 19.4031 1.8335 20.605 2.41383C21.6631 2.92479 22.5423 3.74343 23.1274 4.76252C23.7919 5.91998 23.901 7.44727 24.1192 10.5019L24.4062 14.5204C24.5469 16.4908 22.9864 18.1668 21.011 18.1668C20.0008 18.1668 19.0427 17.7181 18.396 16.9421L17.9583 16.4168C17.558 15.9364 17.3578 15.6962 17.1299 15.5021C16.652 15.0952 16.0736 14.8243 15.4551 14.7177C15.1601 14.6668 14.8474 14.6668 14.222 14.6668H11.778C11.1526 14.6668 10.8399 14.6668 10.5449 14.7177C9.92641 14.8243 9.34795 15.0952 8.87012 15.5021C8.64219 15.6962 8.44201 15.9364 8.04166 16.4168L7.60397 16.9421C6.95725 17.7181 5.99924 18.1668 4.98903 18.1668C3.01361 18.1668 1.45304 16.4908 1.59379 14.5204L1.88083 10.5019C2.09901 7.44727 2.2081 5.91998 2.87259 4.76252C3.45765 3.74343 4.33685 2.92479 5.39503 2.41383C6.59689 1.8335 8.12807 1.8335 11.1904 1.8335Z" stroke="white" stroke-width="2" stroke-linecap="round" stroke-linejoin="round"/>
</svg>
