<svg width="26" height="26" viewBox="0 0 26 26" fill="none" xmlns="http://www.w3.org/2000/svg">
<path d="M3.66671 20.0002V19.7668C3.66671 17.8066 3.66671 16.8266 4.04818 16.0779C4.38374 15.4193 4.91917 14.8839 5.57774 14.5483C6.32643 14.1668 7.30652 14.1668 9.26671 14.1668H16.7334C18.6936 14.1668 19.6737 14.1668 20.4223 14.5483C21.0809 14.8839 21.6163 15.4193 21.9519 16.0779C22.3334 16.8266 22.3334 17.8066 22.3334 19.7668V20.0002M3.66671 20.0002C2.37804 20.0002 1.33337 21.0448 1.33337 22.3335C1.33337 23.6222 2.37804 24.6668 3.66671 24.6668C4.95537 24.6668 6.00004 23.6222 6.00004 22.3335C6.00004 21.0448 4.95537 20.0002 3.66671 20.0002ZM22.3334 20.0002C21.0447 20.0002 20 21.0448 20 22.3335C20 23.6222 21.0447 24.6668 22.3334 24.6668C23.622 24.6668 24.6667 23.6222 24.6667 22.3335C24.6667 21.0448 23.622 20.0002 22.3334 20.0002ZM13 20.0002C11.7114 20.0002 10.6667 21.0448 10.6667 22.3335C10.6667 23.6222 11.7114 24.6668 13 24.6668C14.2887 24.6668 15.3334 23.6222 15.3334 22.3335C15.3334 21.0448 14.2887 20.0002 13 20.0002ZM13 20.0002V8.3335M6.00004 8.3335H20C21.0872 8.3335 21.6308 8.3335 22.0596 8.15588C22.6314 7.91906 23.0856 7.46482 23.3224 6.89309C23.5 6.46429 23.5 5.92069 23.5 4.8335C23.5 3.7463 23.5 3.2027 23.3224 2.7739C23.0856 2.20217 22.6314 1.74793 22.0596 1.51111C21.6308 1.3335 21.0872 1.3335 20 1.3335H6.00004C4.91284 1.3335 4.36925 1.3335 3.94045 1.51111C3.36871 1.74793 2.91447 2.20217 2.67766 2.7739C2.50004 3.2027 2.50004 3.7463 2.50004 4.8335C2.50004 5.92069 2.50004 6.46429 2.67766 6.89309C2.91447 7.46482 3.36871 7.91906 3.94045 8.15588C4.36925 8.3335 4.91284 8.3335 6.00004 8.3335Z" stroke="white" stroke-width="2" stroke-linecap="round" stroke-linejoin="round"/>
</svg>
