<svg width="60" height="61" viewBox="0 0 60 61" fill="none" xmlns="http://www.w3.org/2000/svg">
<path d="M0 8.5C0 4.08172 3.58172 0.5 8 0.5H52C56.4183 0.5 60 4.08172 60 8.5V52.5C60 56.9183 56.4183 60.5 52 60.5H8C3.58172 60.5 0 56.9183 0 52.5V8.5Z" fill="#D9E1F9"/>
<path d="M18 41.1667C21.1144 37.8634 25.3427 35.8333 30 35.8333C34.6573 35.8333 38.8856 37.8634 42 41.1667M36 24.5C36 27.8137 33.3137 30.5 30 30.5C26.6863 30.5 24 27.8137 24 24.5C24 21.1863 26.6863 18.5 30 18.5C33.3137 18.5 36 21.1863 36 24.5Z" stroke="#0D152D" stroke-width="2" stroke-linecap="round" stroke-linejoin="round"/>
</svg>
