<svg width="199" height="56" viewBox="0 0 199 56" fill="none" xmlns="http://www.w3.org/2000/svg">
<rect x="0.706665" y="0.5" width="197.107" height="55" rx="6.5" fill="black"/>
<rect x="0.706665" y="0.5" width="197.107" height="55" rx="6.5" stroke="#A6A6A6"/>
<path d="M47.593 29.0175C47.6272 26.5472 49.054 24.2098 51.3174 22.916C49.8895 21.0198 47.4978 19.8176 45.0096 19.7452C42.3556 19.4862 39.7828 21.2219 38.4304 21.2219C37.0518 21.2219 34.9695 19.771 32.7273 19.8139C29.8047 19.9017 27.0801 21.4467 25.6581 23.8225C22.6016 28.743 24.8815 35.9746 27.8094 39.952C29.2743 41.8996 30.9864 44.0752 33.2266 43.998C35.4188 43.9135 36.2375 42.6982 38.8836 42.6982C41.5052 42.6982 42.2734 43.998 44.559 43.949C46.9113 43.9135 48.3934 41.9927 49.8069 40.0266C50.8594 38.6389 51.6694 37.1051 52.2067 35.4821C49.4423 34.395 47.5962 31.8083 47.593 29.0175Z" fill="white"/>
<path d="M43.2757 17.1295C44.5583 15.6979 45.1902 13.8578 45.0372 12C43.0777 12.1914 41.2677 13.0621 39.9678 14.4388C38.6966 15.7839 38.0351 17.5916 38.1602 19.3784C40.1204 19.3972 42.0474 18.55 43.2757 17.1295Z" fill="white"/>
<path d="M65.3542 10.9487V19.3333H68.3815C70.88 19.3333 72.3268 17.7935 72.3268 15.1148C72.3268 12.4769 70.8684 10.9487 68.3815 10.9487H65.3542ZM66.6557 12.134H68.2362C69.9736 12.134 71.002 13.238 71.002 15.1323C71.002 17.0556 69.991 18.1479 68.2362 18.1479H66.6557V12.134Z" fill="white"/>
<path d="M76.758 19.4553C78.6057 19.4553 79.7388 18.2177 79.7388 16.1666C79.7388 14.1271 78.5999 12.8836 76.758 12.8836C74.9102 12.8836 73.7713 14.1271 73.7713 16.1666C73.7713 18.2177 74.9044 19.4553 76.758 19.4553ZM76.758 18.3455C75.6714 18.3455 75.0613 17.5495 75.0613 16.1666C75.0613 14.7953 75.6714 13.9934 76.758 13.9934C77.8387 13.9934 78.4546 14.7953 78.4546 16.1666C78.4546 17.5437 77.8387 18.3455 76.758 18.3455Z" fill="white"/>
<path d="M89.3878 13.0056H88.1385L87.0113 17.8342H86.9125L85.6109 13.0056H84.4139L83.1124 17.8342H83.0194L81.8864 13.0056H80.6197L82.3628 19.3333H83.647L84.9485 14.6732H85.0473L86.3547 19.3333H87.6504L89.3878 13.0056Z" fill="white"/>
<path d="M90.8265 19.3333H92.0757V15.632C92.0757 14.6442 92.6626 14.0283 93.5865 14.0283C94.5103 14.0283 94.952 14.5338 94.952 15.5506V19.3333H96.2012V15.2369C96.2012 13.7319 95.4226 12.8836 94.0106 12.8836C93.0577 12.8836 92.4302 13.3078 92.1222 14.0108H92.0292V13.0056H90.8265V19.3333Z" fill="white"/>
<path d="M98.1687 19.3333H99.4179V10.5361H98.1687V19.3333Z" fill="white"/>
<path d="M104.116 19.4553C105.964 19.4553 107.097 18.2177 107.097 16.1666C107.097 14.1271 105.958 12.8836 104.116 12.8836C102.269 12.8836 101.13 14.1271 101.13 16.1666C101.13 18.2177 102.263 19.4553 104.116 19.4553ZM104.116 18.3455C103.03 18.3455 102.42 17.5495 102.42 16.1666C102.42 14.7953 103.03 13.9934 104.116 13.9934C105.197 13.9934 105.813 14.7953 105.813 16.1666C105.813 17.5437 105.197 18.3455 104.116 18.3455Z" fill="white"/>
<path d="M110.819 18.3862C110.14 18.3862 109.646 18.055 109.646 17.4855C109.646 16.9277 110.041 16.6314 110.912 16.5733L112.458 16.4745V17.0033C112.458 17.7877 111.761 18.3862 110.819 18.3862ZM110.5 19.4379C111.331 19.4379 112.022 19.0776 112.4 18.4443H112.499V19.3333H113.701V15.0103C113.701 13.6738 112.807 12.8836 111.22 12.8836C109.785 12.8836 108.762 13.5809 108.635 14.6674H109.843C109.983 14.22 110.465 13.9644 111.162 13.9644C112.016 13.9644 112.458 14.342 112.458 15.0103V15.5564L110.744 15.6552C109.239 15.7482 108.391 16.4048 108.391 17.5437C108.391 18.7 109.28 19.4379 110.5 19.4379Z" fill="white"/>
<path d="M117.941 19.4379C118.812 19.4379 119.55 19.0253 119.928 18.3339H120.027V19.3333H121.224V10.5361H119.974V14.0108H119.882C119.539 13.3136 118.807 12.901 117.941 12.901C116.343 12.901 115.314 14.1677 115.314 16.1666C115.314 18.1712 116.331 19.4379 117.941 19.4379ZM118.295 14.0225C119.341 14.0225 119.998 14.8534 119.998 16.1724C119.998 17.4972 119.347 18.3165 118.295 18.3165C117.238 18.3165 116.604 17.5088 116.604 16.1666C116.604 14.8359 117.244 14.0225 118.295 14.0225Z" fill="white"/>
<path d="M129.325 19.4553C131.173 19.4553 132.306 18.2177 132.306 16.1666C132.306 14.1271 131.167 12.8836 129.325 12.8836C127.477 12.8836 126.338 14.1271 126.338 16.1666C126.338 18.2177 127.471 19.4553 129.325 19.4553ZM129.325 18.3455C128.238 18.3455 127.628 17.5495 127.628 16.1666C127.628 14.7953 128.238 13.9934 129.325 13.9934C130.406 13.9934 131.022 14.7953 131.022 16.1666C131.022 17.5437 130.406 18.3455 129.325 18.3455Z" fill="white"/>
<path d="M133.959 19.3333H135.209V15.632C135.209 14.6442 135.795 14.0283 136.719 14.0283C137.643 14.0283 138.085 14.5338 138.085 15.5506V19.3333H139.334V15.2369C139.334 13.7319 138.555 12.8836 137.144 12.8836C136.191 12.8836 135.563 13.3078 135.255 14.0108H135.162V13.0056H133.959V19.3333Z" fill="white"/>
<path d="M145.088 11.431V13.0347H144.082V14.0864H145.088V17.6599C145.088 18.8801 145.64 19.3682 147.028 19.3682C147.272 19.3682 147.505 19.3391 147.708 19.3042V18.2642C147.534 18.2816 147.424 18.2932 147.232 18.2932C146.61 18.2932 146.337 18.0027 146.337 17.3403V14.0864H147.708V13.0347H146.337V11.431H145.088Z" fill="white"/>
<path d="M149.385 19.3333H150.634V15.6378C150.634 14.6791 151.204 14.0341 152.227 14.0341C153.11 14.0341 153.58 14.5454 153.58 15.5564V19.3333H154.83V15.2485C154.83 13.7436 153.999 12.8894 152.651 12.8894C151.698 12.8894 151.03 13.3136 150.722 14.0225H150.623V10.5361H149.385V19.3333Z" fill="white"/>
<path d="M159.336 13.9469C160.26 13.9469 160.864 14.5919 160.894 15.5855H157.698C157.767 14.5977 158.412 13.9469 159.336 13.9469ZM160.888 17.625C160.655 18.1189 160.138 18.392 159.383 18.392C158.383 18.392 157.738 17.6889 157.698 16.5791V16.5094H162.166V16.0736C162.166 14.0864 161.103 12.8836 159.342 12.8836C157.558 12.8836 156.425 14.1677 156.425 16.1898C156.425 18.2119 157.535 19.4553 159.348 19.4553C160.795 19.4553 161.806 18.7581 162.09 17.625H160.888Z" fill="white"/>
<path d="M127.11 25.4528V28.6602H125.099V30.7636H127.11V37.9106C127.11 40.351 128.214 41.3272 130.991 41.3272C131.479 41.3272 131.944 41.2691 132.351 41.1994V39.1192C132.002 39.1541 131.781 39.1773 131.398 39.1773C130.154 39.1773 129.608 38.5962 129.608 37.2714V30.7636H132.351V28.6602H129.608V25.4528H127.11Z" fill="white"/>
<path d="M139.426 41.5015C143.122 41.5015 145.388 39.0262 145.388 34.924C145.388 30.845 143.11 28.3581 139.426 28.3581C135.731 28.3581 133.453 30.845 133.453 34.924C133.453 39.0262 135.719 41.5015 139.426 41.5015ZM139.426 39.2819C137.253 39.2819 136.033 37.6898 136.033 34.924C136.033 32.1814 137.253 30.5777 139.426 30.5777C141.588 30.5777 142.819 32.1814 142.819 34.924C142.819 37.6782 141.588 39.2819 139.426 39.2819Z" fill="white"/>
<path d="M147.327 41.2575H149.825V33.7851C149.825 32.0071 151.162 30.8101 153.056 30.8101C153.497 30.8101 154.241 30.8915 154.45 30.9612V28.4975C154.183 28.4278 153.707 28.3929 153.335 28.3929C151.685 28.3929 150.278 29.2994 149.918 30.5428H149.732V28.6021H147.327V41.2575Z" fill="white"/>
<path d="M160.654 30.4847C162.502 30.4847 163.71 31.7747 163.769 33.7619H157.377C157.516 31.7863 158.806 30.4847 160.654 30.4847ZM163.757 37.8409C163.292 38.8287 162.258 39.3749 160.747 39.3749C158.748 39.3749 157.458 37.9687 157.377 35.7491V35.6096H166.314V34.738C166.314 30.7636 164.187 28.3581 160.666 28.3581C157.098 28.3581 154.832 30.9263 154.832 34.9705C154.832 39.0146 157.052 41.5015 160.677 41.5015C163.571 41.5015 165.593 40.107 166.163 37.8409H163.757Z" fill="white"/>
<path d="M110.725 36.584C110.917 39.6916 113.507 41.679 117.361 41.679C121.481 41.679 124.058 39.5953 124.058 36.2709C124.058 33.6571 122.589 32.2117 119.024 31.3806L117.108 30.9109C114.844 30.3809 113.929 29.6703 113.929 28.4296C113.929 26.8638 115.35 25.84 117.482 25.84C119.505 25.84 120.903 26.8397 121.155 28.4417H123.781C123.625 25.5148 121.047 23.4551 117.518 23.4551C113.724 23.4551 111.194 25.5148 111.194 28.6103C111.194 31.1638 112.628 32.6815 115.771 33.4162L118.012 33.9582C120.312 34.5003 121.324 35.2952 121.324 36.6202C121.324 38.1619 119.734 39.2821 117.566 39.2821C115.241 39.2821 113.627 38.2342 113.399 36.584H110.725Z" fill="white"/>
<path d="M84.8423 28.3929C83.1224 28.3929 81.6349 29.2529 80.8679 30.6939H80.682V28.6021H78.2764V45.4643H80.7749V39.34H80.9725C81.6349 40.6764 83.0643 41.4667 84.8656 41.4667C88.0614 41.4667 90.0951 38.9449 90.0951 34.924C90.0951 30.9031 88.0614 28.3929 84.8423 28.3929ZM84.1334 39.2238C82.0416 39.2238 80.7285 37.5736 80.7285 34.9356C80.7285 32.286 82.0416 30.6358 84.1451 30.6358C86.2601 30.6358 87.5268 32.2511 87.5268 34.924C87.5268 37.6084 86.2601 39.2238 84.1334 39.2238Z" fill="white"/>
<path d="M98.8378 28.3929C97.1179 28.3929 95.6304 29.2529 94.8634 30.6939H94.6775V28.6021H92.2719V45.4643H94.7705V39.34H94.968C95.6304 40.6764 97.0598 41.4667 98.8611 41.4667C102.057 41.4667 104.091 38.9449 104.091 34.924C104.091 30.9031 102.057 28.3929 98.8378 28.3929ZM98.129 39.2238C96.0372 39.2238 94.724 37.5736 94.724 34.9356C94.724 32.286 96.0372 30.6358 98.1406 30.6358C100.256 30.6358 101.522 32.2511 101.522 34.924C101.522 37.6084 100.256 39.2238 98.129 39.2238Z" fill="white"/>
<path d="M73.7936 41.2575H76.6603L70.3849 23.8767H67.4821L61.2067 41.2575H63.977L65.579 36.6443H72.2037L73.7936 41.2575ZM68.795 27.0324H68.9997L71.5171 34.3798H66.2655L68.795 27.0324Z" fill="white"/>
</svg>
