<svg width="28" height="28" viewBox="0 0 28 28" fill="none" xmlns="http://www.w3.org/2000/svg">
<mask id="mask0_8056_3786" style="mask-type:alpha" maskUnits="userSpaceOnUse" x="0" y="0" width="28" height="28">
<rect width="28" height="28" fill="#D9D9D9"/>
</mask>
<g mask="url(#mask0_8056_3786)">
<path d="M1.16663 24.5V18.6667H3.49996V22.1667H6.99996V24.5H1.16663ZM21 24.5V22.1667H24.5V18.6667H26.8333V24.5H21ZM4.66663 21V7H6.99996V21H4.66663ZM8.16663 21V7H9.33329V21H8.16663ZM11.6666 21V7H14V21H11.6666ZM15.1666 21V7H18.6666V21H15.1666ZM19.8333 21V7H21V21H19.8333ZM22.1666 21V7H23.3333V21H22.1666ZM1.16663 9.33333V3.5H6.99996V5.83333H3.49996V9.33333H1.16663ZM24.5 9.33333V5.83333H21V3.5H26.8333V9.33333H24.5Z" fill="white"/>
</g>
</svg>
