<svg width="28" height="28" viewBox="0 0 28 28" fill="none" xmlns="http://www.w3.org/2000/svg">
<path d="M4.66671 21.0002V20.7668C4.66671 18.8066 4.66671 17.8266 5.04818 17.0779C5.38374 16.4193 5.91917 15.8839 6.57774 15.5483C7.32643 15.1668 8.30652 15.1668 10.2667 15.1668H17.7334C19.6936 15.1668 20.6737 15.1668 21.4223 15.5483C22.0809 15.8839 22.6163 16.4193 22.9519 17.0779C23.3334 17.8266 23.3334 18.8066 23.3334 20.7668V21.0002M4.66671 21.0002C3.37804 21.0002 2.33337 22.0448 2.33337 23.3335C2.33337 24.6222 3.37804 25.6668 4.66671 25.6668C5.95537 25.6668 7.00004 24.6222 7.00004 23.3335C7.00004 22.0448 5.95537 21.0002 4.66671 21.0002ZM23.3334 21.0002C22.0447 21.0002 21 22.0448 21 23.3335C21 24.6222 22.0447 25.6668 23.3334 25.6668C24.622 25.6668 25.6667 24.6222 25.6667 23.3335C25.6667 22.0448 24.622 21.0002 23.3334 21.0002ZM14 21.0002C12.7114 21.0002 11.6667 22.0448 11.6667 23.3335C11.6667 24.6222 12.7114 25.6668 14 25.6668C15.2887 25.6668 16.3334 24.6222 16.3334 23.3335C16.3334 22.0448 15.2887 21.0002 14 21.0002ZM14 21.0002V9.3335M7.00004 9.3335H21C22.0872 9.3335 22.6308 9.3335 23.0596 9.15588C23.6314 8.91906 24.0856 8.46482 24.3224 7.89309C24.5 7.46429 24.5 6.92069 24.5 5.8335C24.5 4.7463 24.5 4.2027 24.3224 3.7739C24.0856 3.20217 23.6314 2.74793 23.0596 2.51111C22.6308 2.3335 22.0872 2.3335 21 2.3335H7.00004C5.91284 2.3335 5.36925 2.3335 4.94045 2.51111C4.36871 2.74793 3.91447 3.20217 3.67766 3.7739C3.50004 4.2027 3.50004 4.7463 3.50004 5.8335C3.50004 6.92069 3.50004 7.46429 3.67766 7.89309C3.91447 8.46482 4.36871 8.91906 4.94045 9.15588C5.36925 9.3335 5.91284 9.3335 7.00004 9.3335Z" stroke="white" stroke-width="2" stroke-linecap="round" stroke-linejoin="round"/>
</svg>
