<svg width="28" height="28" viewBox="0 0 28 28" fill="none" xmlns="http://www.w3.org/2000/svg">
<path d="M7 12.8335H11.6667M9.33333 10.5002V15.1668M17.5 14.0002H17.5117M21 11.6668H21.0117M12.1904 5.8335H15.8096C18.8719 5.8335 20.4031 5.8335 21.605 6.41383C22.6631 6.92479 23.5423 7.74343 24.1274 8.76252C24.7919 9.91998 24.901 11.4473 25.1192 14.5019L25.4062 18.5204C25.5469 20.4908 23.9864 22.1668 22.011 22.1668C21.0008 22.1668 20.0427 21.7181 19.396 20.9421L18.9583 20.4168C18.558 19.9364 18.3578 19.6962 18.1299 19.5021C17.652 19.0952 17.0736 18.8243 16.4551 18.7177C16.1601 18.6668 15.8474 18.6668 15.222 18.6668H12.778C12.1526 18.6668 11.8399 18.6668 11.5449 18.7177C10.9264 18.8243 10.348 19.0952 9.87012 19.5021C9.64219 19.6962 9.44201 19.9364 9.04166 20.4168L8.60397 20.9421C7.95725 21.7181 6.99924 22.1668 5.98903 22.1668C4.01361 22.1668 2.45304 20.4908 2.59379 18.5204L2.88083 14.5019C3.09901 11.4473 3.2081 9.91998 3.87259 8.76252C4.45765 7.74343 5.33685 6.92479 6.39503 6.41383C7.59689 5.8335 9.12807 5.8335 12.1904 5.8335Z" stroke="white" stroke-width="2" stroke-linecap="round" stroke-linejoin="round"/>
</svg>
