<svg width="214" height="56" viewBox="0 0 214 56" fill="none" xmlns="http://www.w3.org/2000/svg">
<rect x="0.813599" y="0.5" width="212.686" height="55" rx="4.5" fill="black"/>
<rect x="0.813599" y="0.5" width="212.686" height="55" rx="4.5" stroke="#A6A6A6"/>
<g filter="url(#filter0_ii_8046_1595)">
<path d="M24.8749 12.4932C24.5221 12.8764 24.3135 13.4711 24.3135 14.2412V41.7565C24.3135 42.5279 24.5221 43.1214 24.8749 43.5046L24.9647 43.5941L39.9884 28.1805V27.9989V27.8172L24.9647 12.4023L24.8749 12.4932Z" fill="url(#paint0_linear_8046_1595)"/>
<path d="M44.9954 33.3208L39.9883 28.1813V27.9996V27.818L44.9966 22.6797L45.1094 22.7456L51.0429 26.2043C52.737 27.1922 52.737 28.8083 51.0429 29.7974L45.1094 33.2561L44.9954 33.3208Z" fill="url(#paint1_linear_8046_1595)"/>
<g filter="url(#filter1_i_8046_1595)">
<path d="M45.1095 33.2552L39.9872 28L24.875 43.5057C25.4328 44.1128 26.3557 44.1875 27.3949 43.5828L45.1095 33.2552Z" fill="url(#paint2_linear_8046_1595)"/>
</g>
<path d="M45.1095 22.7445L27.3949 12.4181C26.3557 11.8122 25.4328 11.8881 24.875 12.4953L39.9884 28.001L45.1095 22.7445Z" fill="url(#paint3_linear_8046_1595)"/>
</g>
<path d="M71.806 13.9196C71.806 15.0928 71.4588 16.0266 70.763 16.7238C69.9734 17.5526 68.943 17.967 67.6774 17.967C66.465 17.967 65.4332 17.547 64.5862 16.707C63.7378 15.8656 63.3136 14.824 63.3136 13.5808C63.3136 12.3362 63.7378 11.2946 64.5862 10.4546C65.4332 9.61316 66.465 9.19317 67.6774 9.19317C68.2794 9.19317 68.8548 9.31076 69.4008 9.54456C69.9482 9.77976 70.3864 10.092 70.714 10.4826L69.9762 11.2218C69.4204 10.5568 68.6546 10.225 67.676 10.225C66.7912 10.225 66.0268 10.5358 65.3814 11.1574C64.736 11.779 64.414 12.5868 64.414 13.5794C64.414 14.572 64.736 15.3798 65.3814 16.0014C66.0268 16.623 66.7912 16.9338 67.676 16.9338C68.614 16.9338 69.3966 16.6216 70.0224 15.9958C70.4284 15.5884 70.6636 15.0214 70.7266 14.2948H67.676V13.2854H71.7458C71.7878 13.5052 71.806 13.7166 71.806 13.9196Z" fill="white"/>
<path d="M78.2601 10.4112H74.4353V13.074H77.8849V14.0834H74.4353V16.7462H78.2601V17.7794H73.3559V9.37944H78.2601V10.4112Z" fill="white"/>
<path d="M82.8114 17.7794H81.732V10.4112H79.3856V9.37944H85.1578V10.4112H82.8114V17.7794Z" fill="white"/>
<path d="M89.3339 17.7794V9.37944H90.4133V17.7794H89.3339Z" fill="white"/>
<path d="M95.2001 17.7794H94.1207V10.4112H91.7743V9.37944H97.5465V10.4112H95.2001V17.7794Z" fill="white"/>
<path d="M108.473 16.6944C107.647 17.5428 106.621 17.967 105.393 17.967C104.165 17.967 103.139 17.5428 102.315 16.6944C101.489 15.846 101.077 14.8072 101.077 13.5794C101.077 12.3516 101.489 11.3128 102.315 10.4644C103.139 9.61603 104.165 9.19043 105.393 9.19043C106.614 9.19043 107.639 9.61743 108.468 10.47C109.296 11.3226 109.711 12.3586 109.711 13.5794C109.711 14.8072 109.298 15.846 108.473 16.6944ZM103.111 15.9902C103.733 16.6202 104.493 16.9338 105.393 16.9338C106.293 16.9338 107.055 16.6188 107.675 15.9902C108.297 15.3602 108.609 14.5566 108.609 13.5794C108.609 12.6022 108.297 11.7986 107.675 11.1686C107.055 10.5386 106.293 10.225 105.393 10.225C104.493 10.225 103.733 10.54 103.111 11.1686C102.491 11.7986 102.179 12.6022 102.179 13.5794C102.179 14.5566 102.491 15.3602 103.111 15.9902Z" fill="white"/>
<path d="M111.226 17.7794V9.37944H112.539L116.621 15.9132H116.667L116.621 14.2948V9.37944H117.701V17.7794H116.574L112.302 10.9278H112.256L112.302 12.5462V17.7794H111.226Z" fill="white"/>
<path d="M71.806 13.9196C71.806 15.0928 71.4588 16.0266 70.763 16.7238C69.9734 17.5526 68.943 17.967 67.6774 17.967C66.465 17.967 65.4332 17.547 64.5862 16.707C63.7378 15.8656 63.3136 14.824 63.3136 13.5808C63.3136 12.3362 63.7378 11.2946 64.5862 10.4546C65.4332 9.61316 66.465 9.19317 67.6774 9.19317C68.2794 9.19317 68.8548 9.31076 69.4008 9.54456C69.9482 9.77976 70.3864 10.092 70.714 10.4826L69.9762 11.2218C69.4204 10.5568 68.6546 10.225 67.676 10.225C66.7912 10.225 66.0268 10.5358 65.3814 11.1574C64.736 11.779 64.414 12.5868 64.414 13.5794C64.414 14.572 64.736 15.3798 65.3814 16.0014C66.0268 16.623 66.7912 16.9338 67.676 16.9338C68.614 16.9338 69.3966 16.6216 70.0224 15.9958C70.4284 15.5884 70.6636 15.0214 70.7266 14.2948H67.676V13.2854H71.7458C71.7878 13.5052 71.806 13.7166 71.806 13.9196Z" stroke="white" stroke-width="0.2" stroke-miterlimit="10"/>
<path d="M78.2601 10.4112H74.4353V13.074H77.8849V14.0834H74.4353V16.7462H78.2601V17.7794H73.3559V9.37944H78.2601V10.4112Z" stroke="white" stroke-width="0.2" stroke-miterlimit="10"/>
<path d="M82.8114 17.7794H81.732V10.4112H79.3856V9.37944H85.1578V10.4112H82.8114V17.7794Z" stroke="white" stroke-width="0.2" stroke-miterlimit="10"/>
<path d="M89.3339 17.7794V9.37944H90.4133V17.7794H89.3339Z" stroke="white" stroke-width="0.2" stroke-miterlimit="10"/>
<path d="M95.2001 17.7794H94.1207V10.4112H91.7743V9.37944H97.5465V10.4112H95.2001V17.7794Z" stroke="white" stroke-width="0.2" stroke-miterlimit="10"/>
<path d="M108.473 16.6944C107.647 17.5428 106.621 17.967 105.393 17.967C104.165 17.967 103.139 17.5428 102.315 16.6944C101.489 15.846 101.077 14.8072 101.077 13.5794C101.077 12.3516 101.489 11.3128 102.315 10.4644C103.139 9.61603 104.165 9.19043 105.393 9.19043C106.614 9.19043 107.639 9.61743 108.468 10.47C109.296 11.3226 109.711 12.3586 109.711 13.5794C109.711 14.8072 109.298 15.846 108.473 16.6944ZM103.111 15.9902C103.733 16.6202 104.493 16.9338 105.393 16.9338C106.293 16.9338 107.055 16.6188 107.675 15.9902C108.297 15.3602 108.609 14.5566 108.609 13.5794C108.609 12.6022 108.297 11.7986 107.675 11.1686C107.055 10.5386 106.293 10.225 105.393 10.225C104.493 10.225 103.733 10.54 103.111 11.1686C102.491 11.7986 102.179 12.6022 102.179 13.5794C102.179 14.5566 102.491 15.3602 103.111 15.9902Z" stroke="white" stroke-width="0.2" stroke-miterlimit="10"/>
<path d="M111.226 17.7794V9.37944H112.539L116.621 15.9132H116.667L116.621 14.2948V9.37944H117.701V17.7794H116.574L112.302 10.9278H112.256L112.302 12.5462V17.7794H111.226Z" stroke="white" stroke-width="0.2" stroke-miterlimit="10"/>
<path d="M101.245 29.5524C97.9524 29.5524 95.2686 32.057 95.2686 35.5066C95.2686 38.9352 97.9524 41.4608 101.245 41.4608C104.539 41.4608 107.223 38.9352 107.223 35.5066C107.222 32.057 104.538 29.5524 101.245 29.5524ZM101.245 39.1172C99.4406 39.1172 97.8852 37.629 97.8852 35.508C97.8852 33.3646 99.442 31.8988 101.245 31.8988C103.05 31.8988 104.605 33.3646 104.605 35.508C104.605 37.6276 103.05 39.1172 101.245 39.1172ZM88.2056 29.5524C84.9128 29.5524 82.229 32.057 82.229 35.5066C82.229 38.9352 84.9128 41.4608 88.2056 41.4608C91.4998 41.4608 94.1836 38.9352 94.1836 35.5066C94.1836 32.057 91.4998 29.5524 88.2056 29.5524ZM88.2056 39.1172C86.401 39.1172 84.8456 37.629 84.8456 35.508C84.8456 33.3646 86.4024 31.8988 88.2056 31.8988C90.0102 31.8988 91.5656 33.3646 91.5656 35.508C91.567 37.6276 90.0102 39.1172 88.2056 39.1172ZM72.6964 31.3808V33.9064H78.7416C78.561 35.3274 78.0878 36.3648 77.3654 37.0858C76.4862 37.965 75.11 38.9352 72.6964 38.9352C68.9752 38.9352 66.066 35.935 66.066 32.2138C66.066 28.4926 68.9752 25.4924 72.6964 25.4924C74.704 25.4924 76.1698 26.282 77.252 27.297L79.0342 25.5148C77.5222 24.0714 75.516 22.9668 72.6964 22.9668C67.599 22.9668 63.3136 27.1164 63.3136 32.2138C63.3136 37.3112 67.599 41.4608 72.6964 41.4608C75.4474 41.4608 77.5236 40.5578 79.1462 38.8666C80.815 37.1978 81.3344 34.8514 81.3344 32.9572C81.3344 32.372 81.2896 31.8302 81.1986 31.3794H72.6964V31.3808ZM136.128 33.3422C135.632 32.0122 134.12 29.5524 131.03 29.5524C127.963 29.5524 125.413 31.966 125.413 35.5066C125.413 38.8442 127.94 41.4608 131.323 41.4608C134.051 41.4608 135.631 39.792 136.286 38.8218L134.256 37.468C133.58 38.4606 132.654 39.1144 131.323 39.1144C129.993 39.1144 129.045 38.5054 128.436 37.3098L136.398 34.017L136.128 33.3422ZM128.008 35.3274C127.94 33.0258 129.79 31.854 131.121 31.854C132.159 31.854 133.038 32.3734 133.332 33.1168L128.008 35.3274ZM121.535 41.101H124.151V23.5996H121.535V41.101ZM117.249 30.8838H117.159C116.572 30.1838 115.444 29.5524 114.024 29.5524C111.047 29.5524 108.318 32.169 108.318 35.5304C108.318 38.868 111.047 41.4622 114.024 41.4622C115.445 41.4622 116.572 40.8308 117.159 40.1098H117.249V40.9666C117.249 43.2444 116.031 44.4624 114.069 44.4624C112.468 44.4624 111.475 43.313 111.069 42.3428L108.791 43.2906C109.445 44.8684 111.181 46.8088 114.069 46.8088C117.137 46.8088 119.731 45.0042 119.731 40.6054V29.915H117.25V30.8838H117.249ZM114.25 39.1172C112.445 39.1172 110.935 37.6052 110.935 35.5304C110.935 33.4318 112.445 31.8988 114.25 31.8988C116.031 31.8988 117.429 33.4318 117.429 35.5304C117.429 37.6052 116.031 39.1172 114.25 39.1172ZM148.383 23.5996H142.124V41.101H144.735V34.4706H148.382C151.277 34.4706 154.125 32.3748 154.125 29.0358C154.125 25.6968 151.278 23.5996 148.383 23.5996ZM148.45 32.0346H144.735V26.0356H148.45C150.403 26.0356 151.512 27.6526 151.512 29.0358C151.512 30.391 150.403 32.0346 148.45 32.0346ZM164.595 29.5216C162.704 29.5216 160.745 30.3546 159.935 32.2012L162.253 33.1686C162.749 32.2012 163.673 31.8848 164.64 31.8848C165.991 31.8848 167.364 32.6954 167.387 34.136V34.3166C166.914 34.0464 165.9 33.6418 164.662 33.6418C162.163 33.6418 159.618 35.0152 159.618 37.5814C159.618 39.9236 161.668 41.4314 163.964 41.4314C165.719 41.4314 166.688 40.6432 167.296 39.7192H167.385V41.0702H169.908V34.36C169.91 31.2548 167.588 29.5216 164.595 29.5216ZM164.279 39.113C163.425 39.113 162.231 38.6846 162.231 37.6262C162.231 36.2752 163.717 35.7572 165.001 35.7572C166.148 35.7572 166.69 36.005 167.387 36.3424C167.184 37.965 165.788 39.113 164.279 39.113ZM179.095 29.9038L176.1 37.4918H176.011L172.903 29.9038H170.089L174.749 40.5088L172.092 46.4084H174.817L182 29.9038H179.095ZM155.567 41.101H158.178V23.5996H155.567V41.101Z" fill="white"/>
<defs>
<filter id="filter0_ii_8046_1595" x="24.3135" y="12" width="28" height="32" filterUnits="userSpaceOnUse" color-interpolation-filters="sRGB">
<feFlood flood-opacity="0" result="BackgroundImageFix"/>
<feBlend mode="normal" in="SourceGraphic" in2="BackgroundImageFix" result="shape"/>
<feColorMatrix in="SourceAlpha" type="matrix" values="0 0 0 0 0 0 0 0 0 0 0 0 0 0 0 0 0 0 127 0" result="hardAlpha"/>
<feOffset dy="-0.15"/>
<feComposite in2="hardAlpha" operator="arithmetic" k2="-1" k3="1"/>
<feColorMatrix type="matrix" values="0 0 0 0 0 0 0 0 0 0 0 0 0 0 0 0 0 0 0.12 0"/>
<feBlend mode="normal" in2="shape" result="effect1_innerShadow_8046_1595"/>
<feColorMatrix in="SourceAlpha" type="matrix" values="0 0 0 0 0 0 0 0 0 0 0 0 0 0 0 0 0 0 127 0" result="hardAlpha"/>
<feOffset dy="0.15"/>
<feComposite in2="hardAlpha" operator="arithmetic" k2="-1" k3="1"/>
<feColorMatrix type="matrix" values="0 0 0 0 1 0 0 0 0 1 0 0 0 0 1 0 0 0 0.25 0"/>
<feBlend mode="normal" in2="effect1_innerShadow_8046_1595" result="effect2_innerShadow_8046_1595"/>
</filter>
<filter id="filter1_i_8046_1595" x="24.875" y="28" width="20.2345" height="16" filterUnits="userSpaceOnUse" color-interpolation-filters="sRGB">
<feFlood flood-opacity="0" result="BackgroundImageFix"/>
<feBlend mode="normal" in="SourceGraphic" in2="BackgroundImageFix" result="shape"/>
<feColorMatrix in="SourceAlpha" type="matrix" values="0 0 0 0 0 0 0 0 0 0 0 0 0 0 0 0 0 0 127 0" result="hardAlpha"/>
<feOffset dy="-0.15"/>
<feComposite in2="hardAlpha" operator="arithmetic" k2="-1" k3="1"/>
<feColorMatrix type="matrix" values="0 0 0 0 0 0 0 0 0 0 0 0 0 0 0 0 0 0 0.08 0"/>
<feBlend mode="normal" in2="shape" result="effect1_innerShadow_8046_1595"/>
</filter>
<linearGradient id="paint0_linear_8046_1595" x1="38.6566" y1="13.9501" x2="17.7843" y2="34.2943" gradientUnits="userSpaceOnUse">
<stop stop-color="#00A0FF"/>
<stop offset="0.0066" stop-color="#00A1FF"/>
<stop offset="0.2601" stop-color="#00BEFF"/>
<stop offset="0.5122" stop-color="#00D2FF"/>
<stop offset="0.7604" stop-color="#00DFFF"/>
<stop offset="1" stop-color="#00E3FF"/>
</linearGradient>
<linearGradient id="paint1_linear_8046_1595" x1="53.2482" y1="27.9996" x2="23.9067" y2="27.9996" gradientUnits="userSpaceOnUse">
<stop stop-color="#FFE000"/>
<stop offset="0.4087" stop-color="#FFBD00"/>
<stop offset="0.7754" stop-color="#FFA500"/>
<stop offset="1" stop-color="#FF9C00"/>
</linearGradient>
<linearGradient id="paint2_linear_8046_1595" x1="42.3278" y1="30.8539" x2="14.0224" y2="58.4433" gradientUnits="userSpaceOnUse">
<stop stop-color="#FF3A44"/>
<stop offset="1" stop-color="#C31162"/>
</linearGradient>
<linearGradient id="paint3_linear_8046_1595" x1="21.0689" y1="3.33566" x2="33.7081" y2="15.6551" gradientUnits="userSpaceOnUse">
<stop stop-color="#32A071"/>
<stop offset="0.0685" stop-color="#2DA771"/>
<stop offset="0.4762" stop-color="#15CF74"/>
<stop offset="0.8009" stop-color="#06E775"/>
<stop offset="1" stop-color="#00F076"/>
</linearGradient>
</defs>
</svg>
