<svg width="28" height="28" viewBox="0 0 28 28" fill="none" xmlns="http://www.w3.org/2000/svg">
<mask id="mask0_8056_3793" style="mask-type:alpha" maskUnits="userSpaceOnUse" x="0" y="0" width="28" height="28">
<rect width="28" height="28" fill="#D9D9D9"/>
</mask>
<g mask="url(#mask0_8056_3793)">
<path d="M6.99998 24.5002C5.83331 24.5002 4.90484 24.0481 4.21456 23.1439C3.52428 22.2397 3.32498 21.2335 3.61664 20.1252L5.71665 12.1918C5.07498 11.7835 4.54512 11.2293 4.12706 10.5293C3.70901 9.82933 3.49998 9.04183 3.49998 8.16683C3.49998 6.8835 3.95692 5.78488 4.87081 4.871C5.7847 3.95711 6.88331 3.50016 8.16665 3.50016H17.5C18.375 3.50016 19.0361 3.86961 19.4833 4.6085C19.9305 5.34738 19.9597 6.10572 19.5708 6.8835L17.2375 11.5502C17.0236 11.9391 16.7368 12.2502 16.3771 12.4835C16.0173 12.7168 15.6139 12.8335 15.1666 12.8335H12.8041L12.4833 14.0002H12.8333C13.1639 14.0002 13.441 14.112 13.6646 14.3356C13.8882 14.5592 14 14.8363 14 15.1668V17.5002C14 17.8307 13.8882 18.1078 13.6646 18.3314C13.441 18.555 13.1639 18.6668 12.8333 18.6668H11.2583L10.3833 21.9335C10.1694 22.6918 9.75137 23.3092 9.12915 23.7856C8.50692 24.262 7.7972 24.5002 6.99998 24.5002ZM6.99998 22.1668C7.2722 22.1668 7.50553 22.0891 7.69998 21.9335C7.89442 21.7779 8.03053 21.5738 8.10831 21.321L10.3833 12.8335H7.96248L5.86248 20.7085C5.76526 21.0779 5.83331 21.4134 6.06665 21.7147C6.29998 22.0161 6.61109 22.1668 6.99998 22.1668ZM8.16665 10.5002H15.1666L17.5 5.8335H8.16665C7.52498 5.8335 6.97567 6.06197 6.51873 6.51891C6.06178 6.97586 5.83331 7.52516 5.83331 8.16683C5.83331 8.8085 6.06178 9.3578 6.51873 9.81475C6.97567 10.2717 7.52498 10.5002 8.16665 10.5002ZM22.1666 5.8335L21.4375 4.2585L25.6666 2.3335L26.3666 3.93766L22.1666 5.8335ZM25.6666 14.0002L21.4375 12.1043L22.1666 10.5002L26.3666 12.4252L25.6666 14.0002ZM22.1666 9.04183V7.29183H26.8333V9.04183H22.1666Z" fill="white"/>
</g>
</svg>
